<?xml version="1.0" standalone="no"?>
<!DOCTYPE svg PUBLIC "-//W3C//DTD SVG 20010904//EN"
 "http://www.w3.org/TR/2001/REC-SVG-20010904/DTD/svg10.dtd">
<svg version="1.0" xmlns="http://www.w3.org/2000/svg"
 width="200.000000pt" height="200.000000pt" viewBox="0 0 200.000000 200.000000"
 preserveAspectRatio="xMidYMid meet">

<g transform="translate(0.000000,200.000000) scale(0.100000,-0.100000)"
fill="#000000" stroke="none">
<path d="M463 1520 c-61 -37 -63 -49 -63 -363 0 -278 0 -285 23 -318 16 -24
36 -38 69 -49 l47 -15 3 -89 c4 -130 6 -130 177 -8 l141 102 215 0 c241 0 271
6 305 62 19 31 20 50 20 316 0 313 -2 325 -63 362 -30 19 -53 20 -437 20 -384
0 -407 -1 -437 -20z m849 -67 c17 -15 18 -37 18 -291 0 -242 -2 -278 -17 -294
-15 -16 -36 -18 -244 -18 l-228 0 -113 -81 -113 -81 -3 68 c-2 38 -8 74 -14
81 -6 7 -27 13 -47 13 -20 0 -47 7 -59 16 -22 15 -22 17 -22 291 0 243 2 279
17 295 15 17 41 18 411 18 354 0 397 -2 414 -17z"/>
<path d="M627 1212 c-21 -23 -22 -66 -1 -86 38 -38 112 1 99 52 -12 51 -66 69
-98 34z"/>
<path d="M860 1210 c-11 -11 -20 -29 -20 -40 0 -27 35 -60 63 -60 53 0 77 75
35 104 -30 21 -54 20 -78 -4z"/>
<path d="M1091 1203 c-33 -41 -7 -93 45 -93 49 0 73 69 36 103 -27 25 -58 21
-81 -10z"/>
<path d="M1450 1405 c-17 -20 -3 -48 26 -54 10 -1 27 -10 37 -19 15 -14 17
-41 17 -292 0 -314 1 -310 -78 -310 -52 0 -62 -17 -62 -99 0 -34 -2 -61 -5
-61 -2 0 -54 36 -116 80 l-111 80 -153 0 c-127 0 -155 -3 -166 -16 -9 -11 -10
-20 -2 -32 8 -14 34 -18 159 -22 l149 -5 137 -98 c174 -125 178 -124 178 9 0
88 1 94 20 94 34 0 80 29 100 63 19 30 20 52 20 310 0 299 -4 330 -52 361 -39
25 -82 30 -98 11z"/>
</g>
</svg>
